<?xml version="1.0" encoding="UTF-8" standalone="no"?>
<svg version="1.1" xmlns="http://www.w3.org/2000/svg" viewBox="0 0 210 297">
	<path fill="none" stroke-width="1" stroke="red" d="M 96.761905,60.90662 C 78.097403,55.905482 88.699438,40.310781 108.65292,40.310781 c 17.07141,0 20.90004,8.545634 20.90004,12.066643 0,3.521011 -1.67838,9.746062 -9.74606,9.746062 -8.06769,0 -15.8162,-7.973189 -15.8162,-16.619394 0,-8.646205 0.61421,-13.229167 3.63802,-19.229539 5.74113,-11.392548 7.59799,-11.526217 10.20536,-1.795387 1.65364,7.134301 2.01129,8.747347 1.84263,13.75865 0.29471,8.732857 -4.71937,38.640821 -16.37704,33.854876 -7.44652,-3.483051 -9.470943,-15.17709 -2.60588,-22.250188 4.93124,-5.080661 8.61945,0.133633 8.75308,1.870887 0.22659,2.945803 -2.05228,5.396691 -4.13121,5.396691 -3.96447,0 -5.423215,-3.196131 -1.24759,-5.606929 3.72698,-2.151775 9.47076,-2.475001 9.95579,1.17909 0.11672,2.159846 -0.3232,4.355829 -3.18767,4.140999 -2.58843,-0.194136 -3.72793,-2.771244 -2.99294,-3.873731 1.4655,-2.198255 3.41496,-1.26959 3.34087,0.434314 -0.0966,2.22264 -2.94527,6.046456 -5.11153,7.951269 -3.34416,2.940554 -5.21175,1.069078 -4.91107,-2.071341 0.30067,-3.140416 0.63476,-6.681737 3.90881,-8.886711 3.27405,-2.204974 4.14268,-2.605876 6.28083,-2.605876 3.27209,0 8.12622,1.099295 8.12622,9.44913 0,11.775244 -3.89616,15.578828 -11.28601,17.558932 -6.10482,1.635781 -12.423643,-5.496408 -12.610642,-8.675435 -0.18492,-3.143775 1.968707,-3.384651 2.126118,-0.708705 0.141739,2.409597 -0.399324,2.749195 -2.834823,3.401785 -8.156444,2.185512 -26.398501,8.372853 -34.11235,21.733631 -2.645855,4.582756 -1.13393,6.945313 1.889879,6.000372 3.023811,-0.944941 4.630208,-1.414549 4.630208,-2.976563 0,-2.256631 -2.551337,-2.645832 -2.551337,-0.188986 0,8.457673 16.891935,14.013003 26.269343,8.598953 4.572327,-2.639834 3.163794,-5.388078 1.039434,-6.614578 -1.710653,-0.987646 -2.207262,-0.03299 -2.207262,2.018275 0,4.627103 5.013136,7.788943 11.089702,7.903603 14.39319,0.27159 16.37109,-8.268136 16.37109,-9.709268 0,-2.553089 -2.19698,-4.086867 -2.19698,-0.779575 0,3.307291 1.98437,3.874256 5.29166,5.197172 7.26567,1.192861 7.51033,1.844581 12.66221,-3.30729 2.22068,-2.220677 1.13393,-3.732515 0.14174,-4.819197 -0.99219,-1.086681 -2.78757,-1.74814 -2.69308,-0.708705 0.21882,2.406887 2.36236,3.827009 7.03981,3.827009 3.16555,0 4.92675,-0.581484 9.22836,-3.065015 4.30161,-2.483534 3.85906,-3.785804 3.85906,-4.919732 0,-1.133929 -2.58741,-8.182641 -13.3709,-12.095239 -11.39499,-4.134465 -18.94606,-2.551339 -21.40291,-0.614215 -1.01608,1.016083 -1.63442,1.720114 -0.0472,3.307292 0.99218,1.133928 5.73673,6.617419 10.34709,7.276042 14.6431,2.091871 -4.63932,-9.622181 -12.78298,-9.622181 -8.64409,0 -10.98227,5.369948 -11.83272,9.811169 -1.753519,9.157333 3.80507,12.0814 5.31697,10.80573 1.5119,-1.275669 1.81733,-1.920152 1.81733,-5.136087 0.0945,-4.015997 -0.23623,-5.386161 -0.99218,-7.984747 -0.75595,-2.598587 -1.78994,-7.36555 -7.51228,-7.512277 -9.924107,-0.25448 -18.499803,9.415338 -19.114398,14.413873 -0.59787,4.862501 5.662799,3.778379 7.882055,1.935971 3.458246,-2.871007 9.991541,-10.654641 7.358088,-15.215916 -1.992,-3.450245 -7.795758,-2.031621 -12.189732,0.850447 -13.212152,8.666032 -21.660371,30.693549 -21.660371,42.698549 0,8.14774 -2.519175,35.14959 22.222587,41.77913 16.174621,4.33398 25.643101,6.27086 27.408021,-19.08779 0.0953,-8.8641 -2.31317,-22.65743 -12.189732,-22.86756 -12.810929,-0.27259 -16.366667,21.12827 -11.717261,30.42708 4.796404,9.59281 9.472332,8.45386 10.511767,0.79984 1.039434,-7.65402 0.215622,-32.09851 -10.606261,-34.91219 -6.182969,-1.60757 -8.950386,0.16518 -11.528274,4.63021 -3.938272,6.82129 -2.478281,18.92024 2.740327,13.70163 8.438467,-8.43847 8.977272,-28.06473 -0.850446,-28.06473 -4.081424,0 -7.796309,4.59417 10.52798,8.04346 8.031994,1.5119 20.39512,3.73958 29.72648,-2.75179 13.07617,-9.09648 -3.5907,-13.100174 0.47247,-3.49628 3.37979,7.9886 17.61611,11.32333 21.54465,3.2128 6.54823,-13.51895 -9.84799,-17.98146 -5.76414,-2.74033 5.33867,19.9242 29.57712,34.76467 33.35639,19.93824 2.55656,-9.54121 -5.90682,-14.62002 -10.58332,-6.52009 -12.23231,21.18699 -2.25245,42.15976 1.70089,46.1131 4.29974,4.29974 5.33891,4.91369 8.17373,3.87425 2.83482,-1.03943 4.20499,-1.32291 5.33892,-5.85863 1.13393,-4.53571 8.09069,-25.3602 0.18899,-33.2619 -4.06325,-3.49628 -8.52415,-5.64577 -10.20536,-0.37798 -2.27985,7.14354 0.64538,11.93455 4.63021,10.86682 5.64499,-1.51257 4.51772,-6.48729 1.70089,-8.032 -5.67351,-3.11126 -6.23661,4.63021 -3.02381,4.63021 4.15774,0 4.34673,-2.07887 4.25223,-5.19717 -0.0945,-3.1183 1.72597,-11.98371 -11.62277,-28.72619 -17.40139,-21.825464 -45.99926,-13.8339 -26.9308,32.03348 13.58393,32.67486 27.99919,31.86449 30.42708,28.34822 12.28423,-19.93824 -9.35029,-31.8501 -19.46577,-32.31697 -11.55164,-0.53315 -22.23429,3.65905 -19.74925,22.96206 1.6064,12.478 -7.74114,13.89573 -11.81176,8.40997 -2.46687,-4.27275 -3.69222,-8.49285 4.34672,-12.00075 17.00786,-7.42161 25.31981,-7.51012 27.0253,11.90625 1.27308,14.49361 5.32974,44.80865 -8.59421,36.76965 -9.40536,-5.43018 -5.6097,-20.75537 -1.13867,-17.87084 6.05382,3.9057 4.05058,11.65225 -3.59078,16.06399 -10.80816,6.2401 -30.291985,9.30877 -41.766368,0.0945 -9.474057,-7.60795 -5.897775,-15.45902 -1.62736,-16.60328 4.535714,-1.22842 8.748743,7.01646 2.099831,13.29599 -3.401786,3.2128 -8.400978,5.09492 -12.095239,0.85045 -4.441221,-5.10268 -5.386162,-9.82738 -3.212797,-18.04837 3.107627,-11.75493 11.7298,-27.48048 25.252838,-13.95744 8.563235,8.56324 10.855955,53.67815 3.851325,79.8198 -3.820282,14.25749 -2.398564,19.08779 -19.087794,19.08779 -12.281609,0 -17.386905,-10.58333 -16.252976,-24.94642 1.133928,-14.3631 6.234799,-40.35432 29.371436,-39.21978 12.924294,0.63376 17.686604,6.52483 24.679154,8.22573 6.99256,1.70089 12.66221,2.83482 20.03274,-1.7009 8.84143,-5.1046 8.68682,-7.60645 6.14211,-17.10341 -2.8892,-10.78267 -17.38956,-17.70874 -21.92228,-17.78656 -11.44756,-0.19654 -14.08528,11.32425 -12.19007,19.58194 2.64583,11.52827 3.02382,18.33184 10.58334,30.42708 9.78561,15.65698 12.06109,29.88125 7.07892,34.86342 -2.57092,2.57092 -6.02752,3.34436 -7.83487,-0.0896 -7.55952,-14.3631 -7.55692,-31.6604 -3.77977,-38.74256 3.02381,-5.66964 11.81176,-18.04836 25.89137,-3.96875 10.39435,10.39435 17.19792,22.3006 17.5759,27.59226 0.46623,6.52729 -0.19021,10.75799 -11.71727,10.58334 -32.46524,-0.4919 -34.67834,-0.42174 -48.94791,3.40178 -40.204695,10.77282 -34.030848,20.59477 -19.843753,15.11905 33.304523,-12.85439 49.173263,-8.47956 59.000643,-1.86498 7.14659,4.8102 11.22503,6.80614 13.67681,4.35436 4.80161,-4.80161 -4.94086,-10.15066 -11.28515,-17.11418" />
</svg>