<?xml version="1.0" encoding="UTF-8" standalone="no"?>
<svg version="1.1" xmlns="http://www.w3.org/2000/svg" viewBox="0 0 210 297">
	<path fill="none" stroke-width="1" stroke="red" d="m 100.54167,160.3616 c -4.817646,8.34441 5.60695,10.98995 8.32595,6.2805 4.01379,-6.95208 -2.80076,-6.87988 -6.62506,-6.87988 -11.206793,0 -16.244918,-0.8604 -16.244918,-5.59507 0,-5.3331 1.935287,-5.28038 18.701758,-16.29513 21.07217,-13.84338 21.73363,-14.55208 27.21429,-14.74107 8.3658,-0.28848 8.59618,1.3118 10.01637,6.99256 2.61527,10.46105 2.82336,35.34077 1.31145,45.35714 -1.5119,10.01637 -1.87842,14.3631 -1.87842,19.0878 0,14.27959 -6.45786,17.19792 -12.47321,17.19792 -5.4571,0 -13.01299,-0.37517 -14.33845,-5.32186 -0.36047,-1.34526 0.50737,-2.94223 2.48952,-3.58351 7.75095,-2.50766 12.34888,-3.62013 15.30803,1.76018 2.07887,3.77976 3.34447,7.33417 0.88763,11.30292 -1.66774,2.88861 -8.16294,10.99929 -14.53211,8.05967 -5.03021,-2.32163 -4.17772,-5.60282 -5.68962,-3.52395 -3.74207,5.35425 -5.86884,0.13153 -10.29985,-4.29948 -2.934822,-2.93482 -3.737241,-7.82884 -9.921875,-11.76451 -5.628233,-3.5816 -18.660357,-10.25452 -19.465774,-30.99405 -0.755951,-19.46577 1.414674,-20.05741 -3.921503,-15.87499 -9.834665,7.70825 -11.808702,7.70126 -16.205729,7.70126 -13.637176,0 -15.780507,-14.2686 -15.780507,-15.26079 0,-4.7247 -0.652164,-7.98934 2.645835,-13.70164 2.627206,-4.55045 4.139774,-5.06097 12.095237,-2.92931 16.763813,4.49185 18.605017,9.54308 29.434996,9.54308 22.85401,0 36.46909,-32.66467 35.19893,-56.979094 -1.42441,-27.267277 -2.59801,-19.945633 -2.59801,-19.945633 0.74843,10.219656 -6.89095,43.532207 -16.757057,55.475397 -4.818994,5.83352 -10.799877,14.88766 -16.857629,15.0803 -6.680034,0.21243 -11.778815,-7.4782 -11.778815,-13.63718 0,-10.6427 7.613948,-19.71585 39.841141,-13.26716 31.9922,6.40167 40.0352,0.82183 46.40818,-12.47355 2.29019,-4.777808 5.77642,-15.282625 5.77642,-23.138424 0,-20.958361 -2.08643,-26.689275 2.83482,-12.095236 3.33753,9.897493 4.61679,15.079251 4.61679,26.830621 0,9.975936 -3.76953,15.684079 -6.58136,20.554309 -3.29402,5.7054 -16.67644,12.9377 -21.98747,14.36079" />
</svg>