<?xml version="1.0" encoding="UTF-8" standalone="no"?>
<svg version="1.1" xmlns="http://www.w3.org/2000/svg" viewBox="0 0 210 297">
	<path fill="none" stroke-width="1" stroke="red" d="m 75.637275,176.86235 c 0.935443,-3.87541 2.939966,-11.75986 3.474503,-14.29893 1.135897,-5.14493 0.26008,-5.78207 5.879931,-5.54583 25.132581,0.65691 26.429921,0.64365 44.273811,-2.46874 7.45314,-1.3 13.49304,-1.98173 24.09803,-1.24797 7.25271,0.50182 13.19084,-0.19449 15.81806,0.50947 5.32216,1.42607 6.81537,2.33861 7.08264,5.41221 1.22992,14.14404 2.23098,14.55879 3.4411,15.7689 2.24458,2.24458 3.33443,1.80279 4.07586,-1.9043 0.24118,-0.9001 0.28149,-4.73473 -0.17514,-9.17928 -1.77556,-17.28219 3.21088,-22.33514 1.74536,-25.63258 -1.06908,-2.40542 -1.9043,-2.67269 0.90203,-3.20723 2.80633,-0.53454 6.99058,-1.76627 9.78875,-4.84426 1.64016,-1.64016 2.27585,-2.12287 2.27585,-3.73928 0,-1.64975 0.19268,-1.55623 -3.36164,-0.60385 -2.46609,0.66079 -8.93682,3.27406 -11.34225,4.47677 -12.49445,6.24722 -16.45964,3.67392 -28.63663,8.0718 -7.79666,2.81587 -36.86166,4.2953 -39.91647,4.2953 -11.28356,0 -23.653977,0.79624 -43.900549,-5.95263 -1.944386,-0.64814 -13.930773,-6.1067 -17.506155,4.94448 -3.265189,10.0924 -2.438624,24.88968 2.071341,29.39965 2.949641,2.94964 5.211756,2.80633 6.414468,0.26727 7.084297,-14.95576 3.875408,-34.6114 2.939963,-38.48681 -0.935442,-3.87541 -5.407512,-9.35913 -9.688519,-5.07812 -14.79982,14.79982 -16.321628,12.5509 -36.014568,23.92062 -5.562158,3.21131 -3.67184,3.6617 0.367496,4.74403 8.3324,2.23267 16.684183,-4.20086 31.303943,-3.34087" />
</svg>