<?xml version="1.0" encoding="UTF-8" standalone="no"?>
<svg version="1.1" xmlns="http://www.w3.org/2000/svg" viewBox="0 0 210 297">
	<path fill="none" stroke-width="1" stroke="red" d="m 98.74628,252.4933 c -0.02363,-6.024 0.415437,-4.86358 3.06701,-3.70148 2.05408,0.96926 4.74313,0.22838 7.10732,2.87081 1.33289,1.48977 1.31103,3.55478 1.1602,1.60955 -0.21764,-2.27932 1.81449,-16.46168 1.28517,-26.90648 -2.67262,-13.42313 1.96824,-33.52077 -0.90244,-58.63356 -2.43368,-11.42462 -6.44724,-18.85401 -10.818585,-22.91481 -2.833269,-2.63199 -5.592536,-6.29519 -7.629698,-5.04101 -6.956264,4.2826 -11.258873,12.04425 -13.694275,11.93572 -0.790974,-0.0352 -7.873149,-5.08942 -9.88628,-8.97992 -0.930058,-1.7974 -2.691423,-5.21129 -3.041518,-12.97466 -0.449323,-9.96375 9.288247,-24.91399 10.02,-29.58253 0.888963,-3.442456 1.658293,-9.590152 2.169757,-11.734414 0.806023,-3.379173 2.3457,-5.873048 2.432556,-10.08041 0.06655,-3.223638 -1.879231,-10.333429 -9.995407,-13.720969 -4.489056,-1.873648 -14.079613,2.078868 -10.347098,17.812127 1.055128,4.447568 -1.328135,-0.848949 -2.07887,-3.779762 -1.079357,-4.213727 -1.009791,-23.341519 13.021523,-23.533527 5.134468,-0.07026 5.784597,2.584047 8.822576,2.275605 2.460044,-0.249764 -1.689928,-4.323413 3.491989,-4.389801 2.369038,-0.03035 7.147919,2.274154 6.679651,17.030109 -0.742677,23.403043 -15.177956,46.317772 -11.691173,53.466892 1.364814,-7.31216 19.760525,-23.872192 30.945002,-24.792271 5.32113,-0.437737 21.0989,-3.263979 35.42909,12.497871 8.76586,9.64161 15.60875,46.60678 10.56419,70.95728 -4.51694,-11.04974 -8.78019,-15.07351 -13.87185,-18.89274 -5.35911,-4.01985 -20.52494,-11.92148 -30.2381,-11.90624" />
</svg>