<?xml version="1.0" encoding="UTF-8" standalone="no"?>
<svg version="1.1" xmlns="http://www.w3.org/2000/svg" viewBox="0 0 210 297">
	<path fill="none" stroke-width="1" stroke="red" d="m 42.028133,81.981663 c -6.548104,7.416729 -10.490329,10.958052 -14.967092,13.296659 -4.476766,2.33861 -9.087165,3.207235 -9.020348,5.144938 0.06682,1.9377 3.207234,2.73951 1.202713,5.41221 -0.808226,1.07763 -3.07813,-1.70696 -2.019344,-2.47699 1.188015,-0.86401 3.556143,-0.66343 3.622961,1.14064 0.06682,1.80407 -1.5368,2.27179 -1.26953,3.60814 0.267269,1.33635 -1.80407,4.07586 4.610399,-1.40317 6.414469,-5.47902 9.688521,-8.01808 3.140417,-1.46998 -6.548104,6.54811 -6.681738,5.14494 -3.407687,5.14494 3.274052,0 3.34087,0.53454 5.144939,-2.53906 1.804069,-3.0736 1.5368,-3.67496 5.879931,-3.20723 4.343127,0.46772 14.432552,2.67269 19.37704,-3.20724 4.944486,-5.879929 4.744032,-16.771161 -5.078121,-10.223059 -7.728749,5.1525 1.156094,9.365999 2.806329,3.207234 1.746997,-6.519881 -4.610399,-6.34765 -6.214017,-6.34765 -1.603616,0 -7.025692,-0.47534 -8.089075,3.493261 -0.670372,2.501861 5.647263,4.913274 6.485459,0.5826 1.202714,-6.214016 1.737252,-8.68626 4.543581,-11.158503 2.80633,-2.472243 4.677217,-3.540702 4.677217,-7.149459 0,-5.592559 -1.458425,-6.947469 1.608366,-3.140417 1.937703,2.405424 1.732504,1.536798 1.465232,4.677217 -0.267268,3.140416 -1.469982,5.946746 1.737255,3.073599 3.207234,-2.873148 4.877667,-4.009044 3.274049,-0.534538 -1.603616,3.474503 -2.739512,4.476763 1.269532,2.071338 4.009043,-2.405428 3.741772,-2.472243 3.608138,0.334087 -0.133635,2.806329 -1.5368,3.608139 2.138157,1.469982 3.180782,-1.850636 6.128786,-2.776665 4.409947,0.200451 -1.136387,1.96828 -2.138158,3.073601 1.670434,1.670434 3.80859,-1.403165 5.078121,-0.801807 3.80859,1.202714 -2.703986,4.269459 -2.873148,1.870887 1.670436,1.937705 4.543581,0.06682 4.009041,1.804069 1.603616,4.142676 -2.405425,2.33861 -3.80859,3.407688 2.472243,3.741775 6.280835,0.334087 9.020347,2.271789 6.481286,4.409945 -2.539061,2.138158 -1.00226,0.801809 2.672696,0.935448 3.674954,0.13363 5.412208,2.00452 5.011304,4.6104 -0.400905,2.60587 -1.536801,3.27405 1.737254,2.80633 3.27405,-0.46773 3.40768,0.33408 3.27405,2.73951 -0.13364,2.40542 0.53454,1.9377 -1.5368,3.80859 -2.071339,1.87089 -2.472244,1.33635 2.20497,3.60814 4.67722,2.27179 3.54132,3.20723 2.13816,4.34313 -2.51225,2.03371 -2.47736,0.45389 1.46998,1.87088 2.60588,0.93545 3.0736,1.67044 3.4745,3.27406 0.40091,1.60361 0.86863,4.00903 13.49711,3.60813 20.83875,-0.66154 28.06331,-5.81311 38.28637,-5.67947 10.22305,0.13363 22.96901,3.78853 22.59103,19.28556 -0.37797,15.49702 -8.22098,21.26116 -10.20535,23.52901 -1.98438,2.26786 -14.38672,16.11124 -9.40216,21.47377 4.51186,4.51187 2.83977,-6.90294 -0.70871,-1.9135 -0.8032,1.2048 -4.25223,15.1663 -4.81919,21.21392 -0.56697,6.04762 1.41741,5.90587 -2.26786,8.17373 -3.68527,2.26786 -5.66965,2.97657 -5.48066,4.39398 0.18899,1.41741 2.26786,1.93712 3.49628,-0.99219 1.22843,-2.92932 0.66146,-8.59896 0.85045,-14.55209 0.18899,-5.95312 1.32292,-6.04762 1.13393,-22.96205 -0.18899,-16.91443 -0.0287,-26.97012 0.0658,-31.60032 0.0945,-4.63021 7.9064,-3.6399 1.16259,3.4411 -5.66964,5.95312 -24.66294,20.59969 -47.5305,20.03273 -25.835521,-0.64055 -45.073662,-15.30102 -45.073662,-29.00967 0,-16.44305 9.14971,-16.70252 11.323072,-16.70252 2.173364,0 6.063831,0.54404 5.780348,8.10356 -0.28348,7.55952 -2.456844,15.59152 -5.858629,21.73363 -3.401788,6.14212 -4.913691,8.88244 -7.276042,11.1503 -2.36235,2.26786 -14.835565,12.00074 -15.40253,18.52083 -0.566965,6.52009 -0.09449,10.01637 2.740326,16.34747 2.834823,6.3311 3.401788,8.12649 6.898066,7.84301 3.496281,-0.28348 5.197173,1.41741 4.913691,2.74033 -0.283483,1.32291 -0.188987,4.25223 -2.456844,2.07887 -2.267858,-2.17337 -2.173364,-2.74033 -2.267858,-4.25224 -0.09449,-1.5119 0.283483,-2.36235 -3.212798,-7.74851 -3.496278,-5.38616 -9.732886,-13.22917 -9.638392,-17.10342 0.09449,-3.87426 0.283482,-6.52009 3.496281,-9.82738 3.212795,-3.30729 7.559521,-11.71727 7.465028,-16.63095 -0.09449,-4.91369 -2.929316,-10.58334 -2.929316,-17.00893 0,-11.70417 4.346726,-12.14781 3.96875,-20.08531 -0.377976,-7.9375 -0.910697,-10.44979 -8.487435,-20.13116" />
</svg>