<?xml version="1.0" encoding="UTF-8" standalone="no"?>
<svg version="1.1" xmlns="http://www.w3.org/2000/svg" viewBox="0 0 210 297">
	<path fill="none" stroke-width="1" stroke="red" d="m 33.261905,126.06027 c -8.410502,0 -10.299476,2.30615 -14.741072,3.49627 -1.592825,0.4268 -2.776505,0.85133 -3.019977,-4.44139 -0.218807,-4.75653 2.204673,-12.71165 10.201525,-21.072 4.157734,-4.346726 5.200967,-3.80449 4.346726,-6.992556 -2.604971,-9.721885 6.42801,-26.046244 19.749257,-25.513392 9.645638,0.385827 12.756694,9.61555 13.229164,16.063986 0.394111,5.378958 -3.045895,12.907262 -8.126486,14.268602 -4.157739,0.56697 -4.44122,0.47247 -0.661459,1.79539 51.212847,23.82085 56.885417,72.72137 64.822917,107.9122 1.35384,6.00222 -0.90896,6.49244 5.85863,5.10268 19.42483,-3.44398 29.48214,-15.875 33.07292,-22.86756 5.33049,-9.23267 12.34678,-21.04981 12.9348,-39.40134 0.91306,-28.49552 -20.21998,-46.11578 -32.58957,-46.11578 -8.81314,0 -15.82487,13.60517 -15.69514,24.84987 0.0982,8.50892 5.12497,15.31021 7.94663,14.55415 10.09086,-3.66939 3.02381,0.18899 -1.32291,2.45685 -4.34673,2.26785 -8.37575,5.42038 -14.93006,-1.13393 -12.27144,-12.27144 -6.70632,-61.043156 35.15178,-61.043156 24.51285,0 33.46292,16.822466 40.25447,30.805066 20.72715,42.67356 3.09404,74.03977 -22.16253,94.87446 -15.28125,12.60583 -30.35201,20.78625 -59.10235,20.78625 -10.018161,0 -39.876493,-1.32292 -44.223219,-1.88988 -10.701185,-1.39582 -11.521363,2.99154 9.260416,-24.47396" />
</svg>