<?xml version="1.0" encoding="UTF-8" standalone="no"?>
<svg version="1.1" xmlns="http://www.w3.org/2000/svg" viewBox="0 0 210 297">
	<path fill="none" stroke-width="1" stroke="red" d="m 77.863093,246.44568 c 0,-6.94531 3.534307,-5.19138 5.845064,-3.37465 6.66036,5.23641 7.100623,7.3434 7.100623,0.25635 0,-25.52866 -9.56536,-29.15757 -11.62277,-79.56399 -2.004733,-49.11586 -0.119214,-43.20867 7.748513,-72.571427 4.012364,-14.974347 4.465651,-16.322384 -4.252232,-21.355656 -10.693968,-6.174165 -27.834144,-9.696764 -17.103424,-8.504462 6.803573,0.755952 12.918008,1.423142 18.965626,-0.08876 6.047621,-1.511903 8.815623,-2.368081 12.406398,-0.100226 4.217999,2.663999 5.906309,3.598219 2.645834,5.480656 -3.057579,1.765294 -7.893332,0.63223 -14.363094,-1.889881 -9.035654,-3.522373 -8.171358,-2.879694 -7.22642,-6.848445 1.046514,-4.395371 3.732782,-9.007762 13.652014,-9.404531 11.757035,-0.470281 27.025295,2.078868 37.797615,19.84375 10.77232,17.764881 16.25299,41.199402 18.52084,70.870532 1.31369,17.1875 2.83482,21.54464 3.40178,31.93899 0.56697,10.39434 2.43261,14.52721 -1.88988,39.30952 -6.89239,39.51639 -8.32234,39.77687 -11.90625,30.04911 -5.29167,-14.36309 -7.93212,-28.33505 -13.04018,-40.82143 -6.80357,-16.63095 -20.50592,-69.58804 -12.31665,-91.35953 7.74851,-20.599701 0.41041,-19.387487 -5.07025,-8.804158 -5.68152,10.971188 -5.29167,12.095238 -6.80357,8.693448 -1.511907,-3.40179 -3.297069,-11.54481 3.30729,-21.969861 6.19607,-9.78058 18.27974,-19.27832 21.26116,-0.47247" />
</svg>