<?xml version="1.0" encoding="UTF-8" standalone="no"?>
<svg viewBox="0 0 210 297" version="1.1" xmlns="http://www.w3.org/2000/svg">
	<path d="M 100.63616,107.16146 C 95.639336,104.41203 89.296874,94.140029 89.296874,82.309522 c 0,-4.877667 -0.07637,-6.93811 -1.322917,-10.016368 C 87.07431,70.071543 85.352035,65.347434 82.993449,62.988848 69.2425,49.237899 66.067405,23.534226 92.982141,23.534226 c 4.256431,0 11.244789,0.47247 12.378719,0.566964 1.13393,0.09449 2.07887,0.566964 1.88988,1.133928 -0.49175,1.835242 0.15837,1.683245 -0.0236,2.362352 -0.25368,0.946734 -0.58605,0.284391 -0.70871,1.535529 -0.0507,1.037138 -0.45778,1.773676 -1.44103,1.275669 -1.64205,-0.948036 -6.52009,-0.921319 -8.315475,-0.921319 -11.187424,0 -16.208406,3.58205 -16.208406,10.670351 0,5.026267 4.938676,9.526438 6.711753,11.299515 5.78819,5.78819 9.062295,7.372104 9.307663,16.20573 0.332026,11.95346 1.511906,11.528274 3.118303,13.418156 4.406402,4.406403 8.429342,12.653122 10.205362,16.441962 3.1511,6.722357 5.45723,7.943077 9.4494,5.953127 3.22385,-1.60696 5.05098,-2.89009 6.3311,-7.370537 0.75595,-2.645833 2.36067,-10.235939 7.6304,-10.01637 7.46638,0 13.72526,5.90588 15.89862,8.740701 14.06185,17.552326 5.30936,25.190726 15.30804,31.608256 5.80345,3.35063 5.76413,8.12061 5.76413,11.1503 0,20.17575 -8.34608,19.24895 -4.8192,32.41146 m 0,0 c 0.87406,1.96075 0.70869,3.80338 -0.85046,2.59858 -1.55915,-1.2048 -1.84264,-1.46465 -1.86626,-2.64583 -0.0236,-1.18117 0.4016,-1.53553 -0.47247,-2.008 -0.87407,-0.47247 -1.50967,-0.0245 -1.53615,-2.40422 -0.0935,-8.39671 0.6611,-5.94129 -0.0115,-14.20243 0,-19.3414 -15.27019,-19.32893 -17.79991,-34.27731 -1.70438,-10.07134 -4.67722,-12.82894 -7.14946,-14.96709 -2.47225,-2.138161 -5.61266,-4.810857 -7.08264,-6.481291 -2.8114,-3.194757 -16.43679,-12.695301 -23.98744,-12.695301 -10.765881,-0.336446 -9.119512,8.83158 -4.34313,11.292136 3.57312,0.957416 4.14268,3.274052 4.20949,4.810853 0.48651,11.192533 -7.88445,10.732563 -7.88445,20.780203 0,4.55585 -0.400906,7.81764 -1.536798,10.69078 -2.408332,6.09167 -2.000275,9.03305 2.204974,18.10751 8.306634,17.92491 0.06682,19.57749 0.06682,32.00553 0,21.84928 16.169804,28.89393 16.169804,43.69857 0,7.68516 -2.27178,9.48806 -2.27178,12.82893 0,7.684 3.60813,11.62623 3.60813,16.43708 0,7.88445 -1.45057,8.23165 -2.73951,9.12057 -0.96885,0.66817 -1.67043,1.10249 -0.7684,1.93772 0.90204,0.83521 2.40543,1.33633 3.14042,0.40089 0.73499,-0.93544 1.40317,-2.70611 2.20497,-1.23612 0.80181,1.46999 1.26953,2.6727 3.47451,0 2.20497,-2.6727 4.04245,-3.04019 2.37201,-5.27857 -1.67043,-2.23839 -2.7061,-2.17157 -2.00452,-5.01131 1.00102,-3.73584 2.31353,-11.21083 2.09515,-15.7969 -0.14174,-2.97656 -0.47247,-4.016 0.18899,-5.5279 2.47101,-5.648 3.67115,-19.62234 -3.13788,-31.41591 -2.70754,-4.68961 -13.24645,-21.74212 -10.03749,-34.38915 1.1359,-4.47677 4.03854,-15.10073 11.02487,-15.10073 13.30297,0 17.50615,12.59284 17.50615,18.8425 m 0,0 c 0.60136,8.4069 -0.53452,12.22758 -1.93767,16.43707 -3.8654,11.59616 -0.15551,18.33547 6.1472,20.91385 6.71378,2.74654 9.71845,3.34449 11.62622,8.68626 1.33635,3.74177 2.47224,8.68626 2.20498,12.09394 -0.69545,8.86689 3.8754,10.42351 8.28535,12.09395 4.40995,1.67043 6.61492,2.83974 6.61492,3.80859 0,3.0736 -0.66817,2.07134 -0.70158,3.50791 -0.0334,1.43658 1.30294,2.53906 1.30294,3.37428 0,1.80406 -0.30068,1.00226 -1.5368,1.06908 -1.23612,0.0668 -2.10475,0.83521 -2.87315,-0.26727 -0.7684,-1.10249 -1.03567,-1.70385 -2.13816,-1.1359 -1.10248,0.56795 -1.44032,1.66106 -2.63928,-0.23386 -7.35269,-11.62075 -12.88506,-4.13204 -22.45389,-20.70574 -13.11267,-28.89328 -22.41275,-47.23015 -28.37293,-60.60052 -4.63982,-10.40844 -7.40453,-17.80711 -7.40453,-24.83315 0,-5.88126 3.88502,-5.08886 3.88502,-3.77227 0,1.01932 -1.73512,1.77274 -2.68231,1.03276 -3.00527,-2.34789 -2.60588,-5.34539 -1.33635,-8.15172 4.85865,-10.74008 6.59002,-15.60002 5.87993,-24.12108 -1.1659,-13.991282 4.90815,-20.927906 9.08717,-23.65335 3.0736,-2.004521 7.08654,-3.025305 8.41899,-9.354434 2.07577,-9.859904 4.24366,-13.898809 9.95579,-14.03165 7.75516,-0.180354 7.81763,3.80859 7.81763,6.815373 0,8.352174 -4.49415,11.138672 -6.54009,11.138672 -2.04594,0 -5.01931,-1.984689 -4.08387,-3.187403 2.3386,-3.006786 0.30068,-2.539061 0.43431,-3.741775 0.18946,-1.705063 2.43883,-1.670433 2.50565,-2.873147 0.0668,-1.202711 -0.45247,-1.626831 2.02311,-3.056108"
	fill="none" stroke="red" stroke-width="1" />
</svg>