<?xml version="1.0" encoding="UTF-8" standalone="no"?>
<svg version="1.1" xmlns="http://www.w3.org/2000/svg" viewBox="0 0 210 297">
	<path fill="none" stroke-width="1" stroke="red" d="m 121.67445,164.30068 c -2.67604,-2.67604 1.33635,-5.94675 1.40317,-14.90028 0.24035,-32.21467 -28.065472,-31.89823 -26.994226,-57.797034 0.723592,-17.493805 -6.902811,-20.131137 -11.158503,-19.109769 -4.964597,1.33026 -4.944487,-1.403169 -8.95353,-1.202715 -7.548196,0.377413 -17.43868,11.626226 -20.746797,11.626226 -1.536798,0 -5.795346,-1.38603 -3.374277,-2.405427 2.53906,-1.069078 3.207234,-1.336347 3.207234,-3.073599 0,-1.737251 -0.200451,-2.605878 2.204974,-2.605878 9.521478,0 19.377004,-13.497111 32.640291,-13.497111 13.393184,0 16.969984,11.14705 17.725934,16.249728 0.75595,5.102679 1.65365,10.725074 3.87426,14.315848 2.66334,4.30668 3.25921,3.198122 0.9058,11.981171 -1.94271,7.25028 -2.34153,13.58895 4.29137,13.95745 8.24457,0 8.07686,-3.0977 8.07686,-5.73073 0,-4.7761 -5.97246,-7.49844 -13.36853,-7.49844 -8.3285,0 -17.987896,1.72653 -22.773063,-9.354912 -2.04746,-4.741487 -3.230521,-6.851504 -5.362537,-3.590774 -2.223157,3.400121 -1.598891,3.154865 -2.952939,1.322917 -1.606398,-2.173363 -2.078869,-2.173363 -3.212798,-0.850447 -0.762067,0.889078 -1.511905,1.795387 -2.362351,1.322917 -0.850447,-0.47247 -1.635755,-0.0098 -2.297213,0.651673 -0.661459,0.661459 -3.02813,2.033094 -3.704881,2.214428 -0.796634,0.213458 -1.086241,9.857188 8.51626,9.857188 0,0 7.832932,-1.05327 11.234718,-1.19502 3.401786,-0.14174 8.173735,2.83483 8.551711,7.03981 0.377976,4.20499 -1.095626,7.83922 -4.236043,10.11101 -3.140417,2.27179 -8.285356,4.81085 -12.361216,4.81085 -4.07586,0 -7.14946,1.73725 -11.358955,4.54358 -4.209495,2.80633 -9.554886,5.01131 -14.165285,11.8935 -4.610399,6.88219 -21.18111,13.76438 -23.653353,11.96031 -2.472243,-1.80407 0.734991,0.0668 2.138156,-0.13363 1.403165,-0.20046 2.672695,-0.66818 1.937704,-1.33635 -0.734991,-0.66818 -0.601356,-1.60362 -0.200452,-1.80407 0.400904,-0.20045 1.870887,-0.80181 2.204974,-1.33635 0.334086,-0.53454 1.069078,-0.60136 2.271791,-0.66817 1.202712,-0.0668 3.541321,-0.73499 4.677216,-1.60362 1.135896,-0.86863 3.340869,-3.94223 3.942226,-6.48129 0.601356,-2.53906 1.403165,-5.61266 3.073599,-6.88219 1.670435,-1.26953 2.338609,-1.40316 3.340869,-3.60814 1.002261,-2.20497 2.539061,-4.40994 5.679478,-6.41446 3.140417,-2.00453 5.746295,-3.0736 8.151721,-3.67496 2.405425,-0.60136 7.349912,-2.13816 9.287616,-4.27631 1.937704,-2.13816 7.683999,-6.54811 11.358955,-6.61492 8.187047,-0.25579 9.932861,4.43762 9.554885,9.02034 -0.669498,8.11723 1.162165,11.15318 5.049627,11.15318 5.2722,0 6.91778,-11.35363 -1.70876,-11.35363 -2.813478,0 -7.971426,1.50103 -8.151718,8.35217 -0.315416,11.98588 10.256468,14.08228 10.256468,22.11656 0,5.55668 -3.81502,9.76094 -1.40317,15.0005 3.10557,6.74656 9.62171,4.81086 12.36122,8.35218 2.73951,3.54132 -0.23868,7.11417 3.64155,9.35442 4.45634,2.57287 12.76003,-12.22758 17.03843,-12.22758 13.31035,1.69915 16.26769,23.41366 13.56393,28.09671 -0.84983,3.17162 -2.06198,6.67871 -1.60987,9.43325 0.91537,5.57697 4.71837,9.93285 4.61665,15.22236 -0.0753,3.91739 -4.9596,8.17213 -6.82664,9.13208 -2.8844,1.48302 -7.1921,2.37735 -9.8777,4.83276 -3.03843,2.77798 -6.17921,11.9255 -9.75534,15.50163 -3.38088,3.64568 -6.8012,5.99342 -9.70908,7.76015 -10.10999,6.1425 -9.06883,6.75709 -9.60115,8.74375 -0.38001,3.69574 4.71411,4.79415 -1.48668,4.79415 -4.19284,0 -2.90656,-0.0808 -2.90656,-1.35306 0,-2.27263 -1.48669,-1.33634 -1.68714,-3.74177 -0.20045,-2.40542 1.15261,-2.57247 3.29076,-5.24516 2.13816,-2.6727 1.58691,-4.74404 3.92552,-8.8199 2.33861,-4.07586 10.05602,-10.49033 12.52826,-14.49937 3.61533,-5.86269 1.75084,-10.9525 5.51243,-17.63979 1.9081,-3.30492 6.03489,-4.45585 6.84878,-10.72419 1.11336,-8.5748 -1.79612,-7.71458 -1.90429,-12.52826 -0.17732,-7.89023 3.10365,-7.83008 1.70049,-12.77457 -1.22264,-4.30832 -0.47881,-4.63731 -9.72564,2.91223 -8.50411,6.94315 -6.91144,8.0009 -15.57008,12.99997 -23.785899,13.73279 -33.394212,10.13852 -43.032606,10.13852 -4.638878,0 -4.988206,1.62835 -9.618415,1.72284 -4.630208,0.0945 -9.834854,-2.5931 -13.589947,-1.85549 -5.291667,1.03943 -5.118891,6.39693 -8.048206,6.39693 -2.361368,0 -2.61347,-1.73962 -0.17278,-3.14875 2.210769,-1.27639 -0.130135,-3.51332 0.48017,-5.79101 1.483137,-5.53514 4.207359,-1.95473 5.435781,-2.61619 1.228423,-0.66145 0.124138,-2.27359 2.297501,-3.02954 2.173363,-0.75595 6.301458,2.84056 13.388511,2.93505 7.087054,0.0945 20.953832,-4.85197 27.44927,-9.95051 10.525118,-8.26159 13.531872,-20.0998 20.931691,-24.53982" />
</svg>