<?xml version="1.0" encoding="UTF-8" standalone="no"?>
<svg viewBox="0 0 210 297" version="1.1" xmlns="http://www.w3.org/2000/svg">
	<path d="M 44.317708,41.015623 c 5.197173,4.630208 16.107726,6.134104 23.718006,-6.142111 9.530015,-15.372958 25.324403,-15.119048 25.324403,1.984375 0,23.576865 14.517483,20.400132 12.184953,21.02513 -3.35225,0.898234 -12.191479,-4.407545 -16.248197,-11.433987 -4.810755,-8.332472 -14.5925,-9.975948 -17.481396,-7.087052 -7.637728,7.637728 1.762035,9.724551 4.063241,7.039808 1.133929,-1.322918 0.944941,-3.307292 -0.850445,-3.496281 -1.795388,-0.188989 -5.575148,4.157735 -1.039434,5.669642 11.481024,3.827013 10.48884,-5.055431 6.331101,-4.11049 -4.15774,0.944941 -4.063245,2.409597 -6.142114,4.677455 -6.024797,6.572508 -0.283481,8.882443 2.078871,5.953125 1.292143,-1.602258 1.700892,-2.362351 -0.18899,-4.724701 -1.889881,-2.362354 -7.654017,-4.441222 -7.9375,3.118302 -0.283482,7.559524 4.913691,10.58333 9.35491,10.016368 7.658576,-0.977686 6.559468,-5.810995 2.130459,-3.253905 -3.481078,2.009801 -1.090358,10.595504 4.106149,7.695127 10.08382,-5.62818 -4.921895,-6.772689 -0.188987,-1.228423 2.032162,2.380534 6.399604,2.593834 8.016763,-0.207168 4.330593,-7.500806 -7.198491,-6.2506 -1.874651,-0.92676 0.671639,0.671639 3.169892,2.844318 5.815725,-0.462974 2.645834,-3.307291 -4.548853,-3.816074 -1.947201,0.690119 1.872078,3.242535 5.270706,1.950966 7.538566,0.817036 12.91615,-4.45212 24.20252,9.835828 18.97274,18.894061 -3.74213,6.481566 -11.6443,9.238883 -18.70982,2.07887 -7.014171,-7.107984 -3.921497,-18.048362 6.18936,-15.308035 10.11087,2.740326 11.52828,9.732885 13.60715,13.418155 2.07887,3.685268 9.34086,20.259991 18.04836,23.434521 17.589,6.4125 3.39897,-11.680995 -1.11332,-0.61861 -2.92931,7.18155 2.86007,14.38707 10.51409,17.50537 6.52701,2.65915 14.3303,2.51024 25.65079,-0.52308 5.19717,-1.60639 10.79039,-3.29954 13.04591,-0.1107 4.06991,5.754 -3.60478,10.46584 -6.39891,4.33428 -3.17382,-6.17046 -2.57206,-23.98994 9.82334,-11.59454 0.78546,0.78546 3.818,4.65041 1.43224,-4.23083 -0.43184,-1.6076 -1.99504,-6.58765 -4.37082,2.27888 -1.2313,4.59529 -10.16043,8.23352 -8.09175,-0.25519 1.11919,-4.59253 10.55895,-2.36612 12.62353,5.33901 0.55278,2.06299 -5.49738,4.17726 -5.49738,-3.26978 0,-1.25722 1.70348,-8.8072 1.61366,-11.05765 -0.38309,-9.598716 1.32227,-18.98056 2.28935,-22.589759 8.6553,-32.302017 6.95914,-6.35713 5.0528,0.757457 -1.19759,4.469456 -13.945,49.117882 -13.945,54.910372 0,15.10788 3.2291,29.7395 10.2119,17.64493 4.12837,-7.15054 2.58742,-10.70414 2.58742,-18.29776 0,-18.94435 -9.06618,-32.35521 -11.20538,-28.65001 -1.13961,1.97386 4.59539,5.35399 3.55765,1.48111 -1.26592,-4.7245 -8.83471,-6.56431 -14.44737,-1.35256 -5.61266,5.21176 -6.54811,4.67722 -14.43256,4.14268 -10.06693,-0.68251 -10.96852,-1.04873 -13.22984,-9.48807 -2.85248,-10.645601 -12.80873,-16.840295 -17.37252,-18.174326 -9.49086,-2.774249 -14.37987,-2.607525 -16.33586,4.04286 -2.00452,6.815373 0.40507,10.941836 6.41863,12.545456 6.01357,1.60362 10.44367,-7.210954 2.69285,-8.413668 -7.75081,-1.202711 -12.08246,1.376862 -18.03259,7.326988 -12.846191,12.84619 -18.817111,10.48665 -21.247924,9.35443 C 74.623612,109.22121 68.068471,102.77168 70.559154,89.866114 72.932155,77.570326 82.452648,77.97262 83.655362,82.783473 84.858073,87.594325 77.055278,92.992024 72.296405,90.667924 66.55011,87.861595 61.261132,83.489123 58.957249,74.890916 55.090331,60.459381 72.296409,58.595579 71.761868,67.682744 c -0.431086,7.328435 -5.345391,10.557148 -9.220798,13.229841 -3.87541,2.672697 -11.492588,5.879929 -17.37252,0 -8.549388,-8.549384 -10.542846,-15.38508 -2.49853,-21.681256 7.414154,-5.802957 13.001164,-4.967568 17.233288,-1.301737 4.123141,3.571431 3.722657,11.408012 -1.63855,15.766716 -9.918032,8.06344 -15.673734,14.570147 -23.114881,16.563995 -3.290941,0.881805 -7.195629,3.847111 -11.630159,10.162957 -8.752217,12.46528 -2.04081,16.18751 3.374278,10.77242 1.256589,-1.25659 4.00611,-4.53836 -0.599966,-7.19769 -4.1344,-2.387 -13.732362,0.70158 -16.137788,16.47049 -2.4054257,15.7689 0.999587,26.04827 6.280834,28.59783 3.875408,1.87089 4.877669,-0.0668 6.347651,-1.67043 0.669009,-0.66901 3.324165,-4.9946 -0.952147,-6.46458 -3.161861,-1.08689 -8.57981,2.8855 -8.045271,9.16634 0.534539,6.28083 6.92608,12.73306 13.607818,6.05132 3.279952,-3.27995 3.474503,-3.87541 3.207234,-8.15172 0,-5.03843 -3.251154,-6.60339 -5.750426,-8.04635 -12.256101,-7.07607 -16.4964568,-19.91513 -10.95392,-34.0486 8.018086,-20.446121 19.644311,-26.726955 32.072344,-26.326051 12.428033,0.400904 16.93919,12.176976 15.863396,18.93028 -1.025171,6.435521 -6.942292,13.826451 -13.089491,9.951041 -6.147199,-3.87541 -6.230929,-10.578559 -4.951202,-15.354567 2.277575,-8.500027 17.487715,-10.206911 13.937156,3.043957 -5.819768,21.71967 0.989577,48.32165 14.432554,34.87867 12.478695,-12.47869 2.51853,-18.29688 -0.868626,-10.95805 -4.894269,8.47712 7.964052,20.6672 16.971616,11.65964 0.969429,-0.96943 9.318455,-7.0698 15.969358,2.90655 7.48355,11.22531 -3.0736,19.84476 -10.958055,19.71113 -9.287213,-0.15741 -14.375645,-6.01017 -12.49485,-13.02939 2.083934,-7.77735 16.236624,-4.94449 22.784725,7.21628 6.54811,12.16076 4.00904,17.23863 4.00904,26.32605 0,4.654 -2.71125,13.50467 -5.03087,17.52236 -1.68912,2.92565 -6.32808,8.53641 -12.20801,7.3337 -5.879929,-1.20271 -8.644362,-2.50186 -7.216277,-6.5481 0.801808,-2.27179 6.949008,-5.47903 8.552625,0.80181 1.603617,6.28083 -1.469982,10.55714 -2.672695,14.96709 -1.571236,5.7612 -6.147195,18.84249 10.690781,29.26601 13.497986,8.3559 13.431856,13.78934 13.764386,19.10977 0.36709,5.87353 -0.16529,13.54511 -4.64619,10.95806 -4.45354,-2.57126 -7.40376,-9.99285 3.84438,-11.49259 10.0226,-1.33635 12.01529,13.89801 -0.40091,13.89801 -9.29543,0 -11.16636,-6.56803 -12.16076,-8.15171 -3.608143,-5.7463 -3.875409,-7.75083 -10.423513,-14.83347 -5.024845,-5.43503 -17.37252,-19.69162 -17.37252,-36.08138 0,-16.94379 6.288062,-28.25901 19.23669,-28.25901 11.020313,0 14.197713,12.68971 12.874803,27.19942 -1.31687,14.44329 -9.55238,31.88247 -10.9972,37.27461 -3.204921,11.96093 5.922981,20.87686 10.15624,5.07812 2.0185,-7.53316 -1.4598,-11.53509 -6.681736,-20.57976 C 87.72216,216.44991 76.90859,219.3218 72.830946,198.37754 c -2.939963,-15.10072 -1.336351,-26.05877 2.004522,-33.14142 11.046565,-23.41871 20.848921,-9.35633 9.087164,2.40543 -5.699721,5.69972 -9.852867,4.77396 -16.044278,1.19935 -5.228434,-3.01864 -12.517139,-8.20851 -12.152657,-17.50279 0.695877,-17.74483 19.37704,-20.57976 14.298919,-6.01357 -3.118138,8.94413 -8.473816,11.91819 -12.561668,17.23889 -8.418991,10.95805 -13.630746,19.91158 -14.566189,31.67144 -2.420412,30.42805 26.030435,33.09451 52.384828,21.9161 36.610483,-15.52861 44.500373,-2.74547 44.500373,11.62622 0,2.56095 -1.2825,19.86635 -5.74629,3.20724"
	fill="none" stroke="red" stroke-width="1" />
</svg>