<?xml version="1.0" encoding="UTF-8" standalone="no"?>
<svg viewBox="0 0 210 297" version="1.1" xmlns="http://www.w3.org/2000/svg">
	<path d="M 85.526247,222.16453 c -0.717962,-23.76752 -10.812578,-57.2019 -4.214242,-72.60473 5.997414,-11.91426 25.944925,-19.95296 24.280415,6.10186 -2.32748,12.47212 -7.606122,15.58229 -15.394185,15.06055 -4.543613,-0.3044 -5.816685,-4.41355 -5.925639,-12.19059 0.322628,-17.39399 27.895124,-15.94721 40.450554,-18.76438 19.81431,-1.32767 21.14856,21.92579 25.45729,32.21683 5.65833,13.51441 14.02263,22.15928 14.81658,30.22878 0.51045,8.164 2.73801,17.61897 -1.00376,21.36074 -3.74178,3.74178 -9.56798,3.99202 -10.59676,7.41871 -0.20029,2.26409 -2.22217,6.77409 7.19908,5.67161 9.75534,0.30067 8.30836,-7.87891 9.19885,-15.2324 0.35194,-2.90624 2.66181,0.0634 2.67524,-11.44683 0.16285,-3.96288 3.80087,-8.54583 1.53302,-15.16042 -16.03253,-9.58157 -0.0254,-44.7303 -13.62384,-61.916 -8.76664,-11.33789 -1.51673,-17.88456 -9.84984,-26.97522 -5.19717,-5.66965 -8.50446,-10.110868 -17.95386,-6.709082 -9.44941,3.401782 -7.66038,3.570532 -11.2893,3.166122 -6.59599,-0.73506 -2.21932,-4.090382 -7.63584,-6.548771 -5.50176,-2.497078 -13.4964,2.580249 -18.586356,9.458561 -3.49628,4.7247 -13.609786,34.27305 -20.696839,39.28124 -3.874256,2.45684 -10.965398,8.19062 -19.226181,-0.17278 C 39.927093,129.00579 60.999266,96.594337 56.747033,88.751329 52.512488,80.940943 32.739451,97.858982 31.944552,86.360148 30.997534,75.485652 50.684257,70.015029 59.886076,71.857131 c 1.328073,0.392973 2.752299,-2.551577 2.919342,-3.420204 1.047017,-3.904325 -1.090828,-4.449807 -2.989872,-1.581928 -1.445662,2.183196 -0.0056,6.427898 1.224828,6.889312 1.63129,0.32778 2.041494,-2.280114 3.168332,-0.411722 0.830403,1.376878 -2.22217,5.861005 -3.853295,6.598778"
	fill="none" stroke="red" stroke-width="1" />
</svg>