<?xml version="1.0" encoding="UTF-8" standalone="no"?>
<svg viewBox="0 0 210 297" version="1.1" xmlns="http://www.w3.org/2000/svg">
	<path d="M 74.735241,159.32279 c -3.207234,-1.16932 -3.609132,-2.46886 -5.111529,-2.77293 -6.09803,-1.23416 -6.080867,-1.94697 -10.323286,-1.67043 -3.340426,0.21774 -4.977896,0.13363 -6.514696,0.0668 -1.202711,-0.0668 -12.293951,-1.71188 -13.296657,-6.71515 -0.737758,-3.68124 3.463214,-3.83972 6.840674,-5.27285 4.257779,-1.80666 7.249687,-2.07133 7.951269,-2.7061 0.995885,-0.90104 -15.092621,-0.0725 -15.827613,-6.85451 -0.466335,-4.30301 15.902536,-5.51243 20.279076,-5.47903 4.109268,0.0155 1.532254,-1.04164 -2.75503,-3.87541 -1.049414,-0.69363 -6.425011,-4.40013 -7.310078,-9.2205 -0.72283,-3.93678 1.255732,-4.3903 2.165258,-4.17163 9.588293,2.3052 20.816183,10.80692 25.706682,14.82871 5.078121,4.17608 10.857824,10.12283 12.962572,14.16528 2.071338,3.17382 7.818208,4.9165 11.091687,4.9779 1.25928,0.0236 5.22547,1.6896 7.02618,1.89549 2.32043,0.22952 6.31465,-1.6812 7.11646,-3.01754 0.1876,-2.28129 -5.34584,-3.89625 -9.0992,-6.25583 -3.4935,-2.31232 -3.81842,-4.12815 -0.57299,-5.20504 3.24655,-1.07726 6.65348,-1.09282 -2.82023,-3.58938 -3.656843,-0.96367 -13.608123,-6.05818 -2.327839,-9.7227 6.555049,-2.12948 7.796929,-1.77777 -0.177627,-6.58261 -4.902474,-2.79196 -14.605495,-10.42466 1.070006,-9.67727 12.68183,0.0727 15.31986,0.56106 6.55552,-5.77004 -4.97899,-3.831235 -5.44045,-4.226805 -9.610021,-7.867595 -5.345391,-4.977895 -8.649349,-11.01145 3.441101,-9.45466 8.56809,1.103244 21.49354,7.178263 29.97535,12.613904 13.98106,12.018521 31.70423,39.316161 30.66142,55.473011 -0.33409,1.60362 -3.84369,2.99392 -7.05972,2.85427 -2.88531,-0.0924 5.72337,3.59361 9.13105,4.96336 6.98243,2.30522 8.51923,0.43434 11.79328,4.04247 1.90429,2.33861 1.64139,3.37232 1.63702,4.51018 -0.006,1.67966 -0.73498,1.43657 1.46998,2.83974 2.50566,1.90429 -3.47518,-0.37735 -6.21401,-0.46773 -5.86413,-0.1935 -7.21923,3.80384 -12.56167,5.01131 -4.10927,0.83522 -4.91108,0.85716 -7.91786,-0.98032 -3.00678,-1.83747 -4.24015,-4.20558 -5.6265,-5.17331 -3.10811,-2.16959 -0.0864,-0.29425 1.68427,0.64119 4.08066,2.41084 7.50126,7.00153 7.65059,10.85783 0.0668,3.30746 -1.36975,6.31424 -2.47224,7.684 -4.13979,5.2201 -3.46444,6.48107 -12.78055,11.49852 -2.83483,1.27567 -21.10194,11.09309 -32.06325,15.37693 -10.391319,4.06108 -27.095467,7.92129 -35.127462,7.92129 -7.701265,-0.0945 -27.408112,-2.40278 -28.339124,-7.66646 -0.421866,-2.38511 7.1408,-7.25014 17.551981,-10.66342 16.697123,-5.4741 13.837092,-3.81027 1.762962,-6.21495 -17.602,-3.5056 -14.102438,-6.59906 1.467201,-8.99957 20.134854,-3.10438 17.809584,-1.37115 10.817025,-4.96193 -6.99256,-3.59077 -5.575149,-8.6462 1.370163,-11.95349 7.247971,-3.52281 11.223889,-3.49943 16.252977,-2.74032"
	fill="none" stroke="red" stroke-width="1" />
</svg>